<svg width="28" height="25" viewBox="0 0 28 25" fill="none" xmlns="http://www.w3.org/2000/svg">
<g clip-path="url(#clip0_847_1924)">
<path d="M19.6 4.91631C20.2519 4.9167 20.8947 5.06696 21.4776 5.35517C22.0606 5.64339 22.5675 6.06166 22.9585 6.57688C23.3494 7.0921 23.6135 7.69011 23.7299 8.32359C23.8464 8.95707 23.8119 9.60861 23.6293 10.2267C23.4466 10.8447 23.1208 11.4123 22.6777 11.8844C22.2345 12.3566 21.6861 12.7204 21.076 12.9471C20.4659 13.1737 19.8107 13.257 19.1623 13.1903C18.5139 13.1236 17.8902 12.9087 17.3404 12.5627M21 17.3608C22.4852 17.3608 23.9096 17.9435 24.9598 18.9807C26.01 20.0179 26.6 21.4247 26.6 22.8916V24.2743H21.9128M14 6.99038C14 7.62592 13.8733 8.25523 13.627 8.84238C13.3808 9.42954 13.0199 9.96304 12.5648 10.4124C12.1098 10.8618 11.5697 11.2183 10.9752 11.4615C10.3807 11.7047 9.7435 11.8299 9.10002 11.8299C8.45655 11.8299 7.81937 11.7047 7.22488 11.4615C6.63038 11.2183 6.09021 10.8618 5.6352 10.4124C5.18019 9.96304 4.81926 9.42954 4.57301 8.84238C4.32677 8.25523 4.20002 7.62592 4.20002 6.99038C4.20002 5.70687 4.71627 4.47592 5.6352 3.56834C6.55413 2.66075 7.80046 2.15088 9.10002 2.15088C10.3996 2.15088 11.6459 2.66075 12.5648 3.56834C13.4838 4.47592 14 5.70687 14 6.99038ZM7.00002 15.978H11.2C12.6852 15.978 14.1096 16.5608 15.1598 17.598C16.21 18.6352 16.8 20.042 16.8 21.5089V24.2743H1.40002V21.5089C1.40002 20.042 1.99002 18.6352 3.04023 17.598C4.09043 16.5608 5.51481 15.978 7.00002 15.978Z" stroke="white" stroke-width="2" stroke-linecap="round" stroke-linejoin="round"/>
</g>
<defs>
<clipPath id="clip0_847_1924">
<rect width="28" height="24.8889" fill="white"/>
</clipPath>
</defs>
</svg>
