<!DOCTYPE svg PUBLIC "-//W3C//DTD SVG 1.1//EN" "http://www.w3.org/Graphics/SVG/1.1/DTD/svg11.dtd">
<!-- Uploaded to: SVG Repo, www.svgrepo.com, Transformed by: SVG Repo Mixer Tools -->
<svg width="75px" height="75px" viewBox="0 0 24 24" fill="none" xmlns="http://www.w3.org/2000/svg">
<g id="SVGRepo_bgCarrier" stroke-width="0"/>
<g id="SVGRepo_tracerCarrier" stroke-linecap="round" stroke-linejoin="round"/>
<g id="SVGRepo_iconCarrier"> <path d="M11.5 13.8H10.1299C8.72143 13.8 8.01721 13.8 7.72228 13.3385C7.42735 12.8769 7.72321 12.2379 8.31493 10.9597L11.0463 5.06006C11.4205 4.25182 11.6075 3.8477 11.8038 3.89091C12 3.93413 12 4.37946 12 5.27013V9.7C12 9.9357 12 10.0536 12.0732 10.1268C12.1464 10.2 12.2643 10.2 12.5 10.2H13.8701C15.2786 10.2 15.9828 10.2 16.2777 10.6615C16.5726 11.1231 16.2768 11.7621 15.6851 13.0402L12.9537 18.9399C12.5795 19.7482 12.3925 20.1523 12.1962 20.1091C12 20.0659 12 19.6205 12 18.7299V14.3C12 14.0643 12 13.9464 11.9268 13.8732C11.8536 13.8 11.7357 13.8 11.5 13.8Z" fill="#ffffff"/> </g>
</svg>